# AST/ASF file generated using VICON BodyLanguage
# -----------------------------------------------
:version 1.10
:name VICON
:units
  mass 1.0
  length 0.45
  angle deg
:documentation
   .ast/.asf automatically generated from VICON data using
   VICON BodyBuilder and BodyLanguage model FoxedUp or BRILLIANT.MOD
:root
   order TX TY TZ RX RY RZ
   axis XYZ
   position 0 0 0  
   orientation 0 0 0 
:bonedata
  begin
     id 1 
     name lhipjoint
     direction 0.623415 -0.642378 0.445763 
     length 2.49859 
     axis 0 0 0  XYZ
  end
  begin
     id 2 
     name lfemur
     direction 0.34202 -0.939693 0  
     length 6.69689  
     axis 0 0 20  XYZ
    dof rx ry rz
    limits (-160.0 20.0)
           (-70.0 70.0)
           (-60.0 70.0)
  end
  begin
     id 3 
     name ltibia
     direction 0.34202 -0.939693 0   
     length 7.37574   
     axis 0 0 20   XYZ
    dof rx
    limits (-10.0 170.0)
  end
  begin
     id 4 
     name lfoot
     direction 0.084323 -0.231675 0.969132   
     length 2.09111   
     axis -90 7.62852e-016 20   XYZ
    dof rx rz
    limits (-45.0 90.0)
           (-70.0 20.0)
  end
  begin
     id 5 
     name ltoes
     direction 1.5357e-011 -4.21957e-011 1   
     length 1.04989   
     axis -90 7.62852e-016 20   XYZ
    dof rx
    limits (-90.0 20.0)
  end
  begin
     id 6 
     name rhipjoint
     direction -0.605402 -0.653903 0.45376   
     length 2.45455  
     axis 0 0 0  XYZ 
  end
  begin
     id 7 
     name rfemur
     direction -0.34202 -0.939693 0   
     length 6.64523   
     axis 0 0 -20   XYZ
    dof rx ry rz
    limits (-160.0 20.0)
           (-70.0 70.0)
           (-70.0 60.0)
  end
  begin
     id 8 
     name rtibia
     direction -0.34202 -0.939693 0   
     length 7.3339   
     axis 0 0 -20   XYZ
    dof rx
    limits (-10.0 170.0)
 end
 begin
     id 9 
     name rfoot
     direction -0.120854 -0.332043 0.93549   
     length 2.23135  
     axis -90 -7.62852e-016 -20   XYZ
    dof rx rz
    limits (-45.0 90.0)
           (-20.0 70.0)
  end
  begin
     id 10 
     name rtoes
     direction -1.53563e-011 -4.21914e-011 1   
     length 1.10614   
     axis -90 -7.62852e-016 -20   XYZ
    dof rx
    limits (-90.0 20.0)
  end
  begin
     id 11 
     name lowerback
     direction 0.0319682 0.998615 -0.0417941   
     length 2.02718   
     axis 0 0 0   XYZ
    dof rx ry rz
    limits (-20.0 45.0)
           (-30.0 30.0)
           (-30.0 30.0)
  end
  begin
     id 12 
     name upperback
     direction 7.63181e-005 0.995808 0.0914691   
     length 1.97539   
     axis 0 0 0   XYZ
    dof rx ry rz
    limits (-20.0 45.0)
           (-30.0 30.0)
           (-30.0 30.0)
  end
  begin
     id 13 
     name thorax
     direction -0.016423 0.993627 0.111514   
     length 2.00349   
     axis 0 0 0   XYZ
    dof rx ry rz
    limits (-20.0 45.0)
           (-30.0 30.0)
           (-30.0 30.0)
  end
  begin
     id 14 
     name lowerneck
     direction -0.174763 0.981668 -0.0760716   
     length 1.71436   
     axis 0 0 0   XYZ
    dof rx ry rz
    limits (-20.0 45.0)
           (-30.0 30.0)
           (-30.0 30.0)
  end
  begin
     id 15 
     name upperneck
     direction 0.345458 0.934587 -0.0848868   
     length 1.72805   
     axis 0 0 0   XYZ
    dof rx ry rz
    limits (-20.0 45.0)
           (-30.0 30.0)
           (-30.0 30.0)
  end
  begin
     id 16
     name head
     direction 0.13001 0.989848 -0.0574291  
     length 1.767  
     axis 0 0 0   XYZ
    dof rx ry rz
    limits (-20.0 45.0)
           (-30.0 30.0)
           (-30.0 30.0)
  end
  begin
     id 17 
     name lclavicle
     direction 0.952951 0.290122 0.0878234  
     length 3.54654  
     axis 0 0 0   XYZ
    dof ry rz
    limits (-20.0 10.0)
           (0.0 20.0)
  end
  begin
     id 18 
     name lhumerus
     direction 1 -4.48957e-011 -4.56525e-028   
     length 5.19807   
     axis 180 -30 -90   XYZ
    dof rx ry rz
    limits (-60.0 90.0)
           (-90.0 90.0)
           (-90.0 90.0)
  end
  begin
     id 19
     name lradius
     direction 1 -4.48979e-011 -2.0317e-027   
     length 3.0937   
     axis 180 -30 -90   XYZ
    dof rx
    limits (-10.0 170.0)
  end
  begin
     id 20
     name lwrist
     direction 1 -4.48953e-011 -3.05809e-027   
     length 1.54685   
     axis 8.48514e-016 90 90   XYZ
    dof ry
    limits (-180.0 0.0)
 end
  begin
     id 21 
     name lhand
     direction 1 -4.48952e-011 -6.11639e-027   
     length 0.672632   
     axis 3.9013e-015 90 90   XYZ
    dof rx rz
    limits (-90.0 90.0)
           (-45.0 45.0)
  end
  begin
     id 22 
     name lfingers
     direction 1 -4.48925e-011 -1.22426e-026   
     length 0.542293   
     axis 7.80276e-015 90 90   XYZ
    dof rx
    limits (0.0 90.0)
  end
  begin
     id 23
     name lthumb
     direction 0.707107 -6.3486e-011 0.707107   
     length 0.778628   
     axis -90 45 5.37419e-014   XYZ
    dof rx rz
    limits (-45.0 45.0)
           (-45.0 45.0)
  end
  begin
     id 24 
     name rclavicle
     direction -0.960732 0.273675 -0.0457849   
     length 3.52079  
     axis 0 0 0   XYZ 
    dof ry rz
    limits (-10.0 20.0)
           (-20.0 0.0)
  end
  begin
     id 25 
     name rhumerus
     direction -1 -4.48976e-011 -1.63613e-027  
     length 5.45222   
     axis 180 30 90   XYZ
    dof rx ry rz
    limits (-90.0 60.0)
           (-90.0 90.0)
           (-90.0 90.0)
  end
  begin
     id 26 
     name rradius
     direction -1 -4.48957e-011 -7.00033e-028   
     length 3.01284   
     axis 180 30 90   XYZ
    dof rx
    limits (-10.0 170.0)
  end
  begin
     id 27 
     name rwrist
     direction -1 -4.48983e-011 -3.05543e-027   
     length 1.50642   
     axis 8.48514e-016 -90 -90   XYZ
    dof ry
    limits (-180.0 0.0)
  end
  begin
     id 28
     name rhand
     direction -1 -4.48984e-011 -6.11072e-027   
     length 0.622296   
     axis 3.9013e-015 -90 -90   XYZ
    dof rx rz
    limits (-90.0 90.0)
           (-45.0 45.0)
  end
  begin
     id 29
     name rfingers
     direction -1 -4.48865e-011 -1.22637e-026   
     length 0.501711   
     axis 7.80276e-015 -90 -90   XYZ
    dof rx
    limits (0.0 90.0)
  end
  begin
     id 30
     name rthumb
     direction -0.707107 -6.34932e-011 0.707107   
     length 0.72036   
     axis -90 -45 -5.37419e-014   XYZ
    dof rx rz
    limits (-45.0 45.0)
           (-45.0 45.0)
  end
:hierarchy
  begin
    root lhipjoint rhipjoint lowerback
    lhipjoint lfemur
    lfemur ltibia
    ltibia lfoot
    lfoot ltoes
    rhipjoint rfemur
    rfemur rtibia
    rtibia rfoot
    rfoot rtoes
    lowerback upperback
    upperback thorax
    thorax lowerneck lclavicle rclavicle
    lowerneck upperneck
    upperneck head
    lclavicle lhumerus
    lhumerus lradius
    lradius lwrist
    lwrist lhand lthumb
    lhand lfingers
    rclavicle rhumerus
    rhumerus rradius
    rradius rwrist
    rwrist rhand rthumb
    rhand rfingers
  end

#!OML:ASF H:\Not Pregnant\Project 1\Capture day 1\Session 1\non-pregnant.ASF
:FULLY-SPECIFIED
:DEGREES
139
root 4.03783 16.6947 13.1777 36.4555 -1.68241 -5.04044
lowerback 9.12982 0.732455 2.84399
upperback -5.51884 1.31103 -0.791433
thorax -11.0073 0.381359 -2.69838
lowerneck 3.47359 -12.6826 -24.1101
upperneck -33.7787 -12.3478 51.7684
head -2.63497 -9.26841 30.9519
rclavicle 5.96354e-015 -5.1684e-015
rhumerus 37.9966 18.4735 -100.373
rradius 75.7805
rwrist -15.6704
rhand -13.1979 -18.4691
rfingers 7.12502
rthumb 12.9024 -48.0503
lclavicle 5.96354e-015 -5.1684e-015
lhumerus 34.9616 -20.7872 88.8928
lradius 76.8909
lwrist 58.5887
lhand -30.119 -35.1073
lfingers 7.12502
lthumb -3.43242 -5.15523
rfemur -57.4354 -29.7793 54.2097
rtibia 21.5865
rfoot -1.94867 49.6386
rtoes 9.8367
lfemur -50.6659 6.03415 -14.8823
ltibia 24.9182
lfoot -6.9359 0.407926
ltoes -23.943
140
root 4.035 16.6947 13.1651 36.3506 -1.70355 -5.05959
lowerback 9.47307 0.70732 2.91438
upperback -5.29811 1.29145 -0.816562
thorax -10.9656 0.368575 -2.7664
lowerneck 3.65753 -12.5959 -24.2067
upperneck -33.5176 -12.2885 51.7157
head -2.60742 -9.24424 30.7698
rclavicle 1.19271e-014 -1.15295e-014
rhumerus 37.3955 18.9797 -100.118
rradius 77.4197
rwrist -17.2006
rhand -13.2117 -18.5434
rfingers 7.12502
rthumb 12.8891 -48.1254
lclavicle 1.19271e-014 -1.15295e-014
lhumerus 34.0826 -20.9467 89.0909
lradius 78.6557
lwrist 56.1152
lhand -30.3224 -35.9401
lfingers 7.12502
lthumb -3.62884 -5.99126
rfemur -56.8753 -29.0502 53.3403
rtibia 21.4577
rfoot -1.71828 48.623
rtoes 9.92427
lfemur -50.5924 6.00979 -14.8248
ltibia 24.902
lfoot -6.83588 0.445436
ltoes -24.0827
141
root 4.03218 16.6941 13.1543 36.1456 -1.72481 -5.09035
lowerback 9.89287 0.693314 2.98684
upperback -5.07905 1.29049 -0.837045
thorax -10.9706 0.363822 -2.83606
lowerneck 3.87778 -12.505 -24.3197
upperneck -33.1755 -12.2792 51.5872
head -2.57544 -9.22645 30.6437
rclavicle 5.56597e-015 -4.77083e-015
rhumerus 36.7776 19.4815 -99.7344
rradius 78.9616
rwrist -19.3172
rhand -13.6381 -18.7213
rfingers 7.12502
rthumb 12.478 -48.3288
lclavicle 5.56597e-015 -4.77083e-015
lhumerus 33.2364 -21.1477 89.2136
lradius 80.0359
lwrist 53.279
lhand -30.6951 -36.5648
lfingers 7.12502
lthumb -3.98869 -6.62242
rfemur -56.2477 -28.4298 52.5004
rtibia 21.3428
rfoot -1.53591 47.6855
rtoes 10.0018
lfemur -50.4127 5.98564 -14.7502
ltibia 24.9134
lfoot -6.76119 0.489358
ltoes -24.2398
142
root 4.02956 16.696 13.1472 35.8376 -1.75543 -5.1266
lowerback 10.3614 0.69412 3.06783
upperback -4.84617 1.31177 -0.866012
thorax -10.987 0.368717 -2.92519
lowerneck 4.13773 -12.4119 -24.4392
upperneck -32.8036 -12.2821 51.4599
head -2.53724 -9.21635 30.5195
rclavicle -6.75868e-015 2.38542e-015
rhumerus 36.1434 19.953 -99.2531
rradius 80.4336
rwrist -21.7878
rhand -14.4152 -18.9748
rfingers 7.12502
rthumb 11.7288 -48.6264
lclavicle -6.75868e-015 2.38542e-015
lhumerus 32.4341 -21.4107 89.2416
lradius 81.0941
lwrist 50.4318
lhand -31.1783 -37.0222
lfingers 7.12502
lthumb -4.45527 -7.08903
rfemur -55.5562 -27.9581 51.7156
rtibia 21.2395
rfoot -1.38307 46.8799
rtoes 10.0894
lfemur -50.1057 5.96294 -14.6696
ltibia 24.9409
lfoot -6.71991 0.538633
ltoes -24.393
143
root 4.0264 16.6959 13.1434 35.5052 -1.7747 -5.16259
lowerback 10.8093 0.70846 3.15969
upperback -4.63365 1.35246 -0.902301
thorax -11.0116 0.381497 -3.03247
lowerneck 4.43927 -12.3244 -24.5683
upperneck -32.3896 -12.3112 51.3322
head -2.48141 -9.22142 30.3769
rclavicle -1.19271e-014 1.98785e-015
rhumerus 35.4467 20.374 -98.7078
rradius 81.8538
rwrist -24.3745
rhand -15.4287 -19.2569
rfingers 7.12502
rthumb 10.7512 -48.9618
lclavicle -1.19271e-014 1.98785e-015
lhumerus 31.623 -21.7565 89.1851
lradius 81.9342
lwrist 47.9615
lhand -31.6618 -37.3613
lfingers 7.12502
lthumb -4.92214 -7.43844
rfemur -54.9058 -27.6162 51.0516
rtibia 21.1597
rfoot -1.27072 46.2219
rtoes 10.161
lfemur -49.769 5.9312 -14.5787
ltibia 24.9832
lfoot -6.69529 0.587479
ltoes -24.5458
144
root 4.02305 16.6965 13.1425 35.1904 -1.78256 -5.2063
lowerback 11.1941 0.737451 3.2776
upperback -4.45157 1.41516 -0.946816
thorax -11.0297 0.402535 -3.16725
lowerneck 4.78304 -12.2404 -24.705
upperneck -31.9497 -12.3617 51.207
head -2.41606 -9.23969 30.2322
rclavicle -5.1684e-015 4.77083e-015
rhumerus 34.667 20.7387 -98.1291
rradius 83.2163
rwrist -26.8188
rhand -16.5697 -19.5256
rfingers 7.12502
rthumb 9.65051 -49.2845
lclavicle -5.1684e-015 4.77083e-015
lhumerus 30.7705 -22.2014 89.0459
lradius 82.66
lwrist 46.1255
lhand -32.0841 -37.5914
lfingers 7.12502
lthumb -5.32995 -7.67843
rfemur -54.3384 -27.391 50.5433
rtibia 21.0967
rfoot -1.17032 45.7284
rtoes 10.2271
lfemur -49.4405 5.89655 -14.4756
ltibia 25.0236
lfoot -6.67277 0.633684
ltoes -24.6978
145
root 4.01899 16.6977 13.1437 34.9498 -1.77812 -5.23891
lowerback 11.4796 0.779755 3.39091
upperback -4.33139 1.49292 -0.995449
thorax -11.056 0.4301 -3.30601
lowerneck 5.17285 -12.1593 -24.856
upperneck -31.4718 -12.4373 51.0797
head -2.33681 -9.27194 30.0773
rclavicle -1.98785e-015 6.36111e-015
rhumerus 33.7628 21.0476 -97.5474
rradius 84.4923
rwrist -28.8567
rhand -17.6789 -19.7946
rfingers 7.12502
rthumb 8.58019 -49.6003
lclavicle -1.98785e-015 6.36111e-015
lhumerus 29.8147 -22.7436 88.8577
lradius 83.3465
lwrist 45.0453
lhand -32.3941 -37.7699
lfingers 7.12502
lthumb -5.62925 -7.86463
rfemur -53.9241 -27.2382 50.1804
rtibia 21.0756
rfoot -1.09012 45.3663
rtoes 10.275
lfemur -49.1926 5.85178 -14.3797
ltibia 25.0688
lfoot -6.64533 0.67841
ltoes -24.828
146
root 4.01422 16.6995 13.1465 34.8104 -1.75835 -5.26064
lowerback 11.6298 0.834159 3.50301
upperback -4.27171 1.58313 -1.04796
thorax -11.0676 0.463313 -3.44854
lowerneck 5.58999 -12.0839 -25.0157
upperneck -30.9612 -12.5362 50.9488
head -2.24269 -9.31652 29.9049
rclavicle -1.51076e-014 4.37326e-015
rhumerus 32.732 21.3121 -96.979
rradius 85.6528
rwrist -30.2786
rhand -18.6632 -20.056
rfingers 7.12502
rthumb 7.63024 -49.8984
lclavicle -1.51076e-014 4.37326e-015
lhumerus 28.7427 -23.3841 88.6296
lradius 84.0325
lwrist 44.643
lhand -32.5779 -37.9274
lfingers 7.12502
lthumb -5.80665 -8.027
rfemur -53.6762 -27.1313 49.9612
rtibia 21.0761
rfoot -1.00793 45.1142
rtoes 10.3038
lfemur -49.0485 5.79682 -14.2911
ltibia 25.0985
lfoot -6.59532 0.7197
ltoes -24.9549
147
root 4.00801 16.7023 13.1526 34.7176 -1.72409 -5.25736
lowerback 11.6977 0.896776 3.58756
upperback -4.26478 1.67833 -1.09866
thorax -11.0891 0.500047 -3.57341
lowerneck 6.05025 -12.0074 -25.1911
upperneck -30.4176 -12.654 50.8075
head -2.1412 -9.37022 29.7226
rclavicle -1.23246e-014 6.36111e-015
rhumerus 31.54 21.5447 -96.4468
rradius 86.6711
rwrist -30.948
rhand -19.4563 -20.3161
rfingers 7.12502
rthumb 6.86473 -50.1848
lclavicle -1.23246e-014 6.36111e-015
lhumerus 27.5079 -24.1019 88.4095
lradius 84.7206
lwrist 44.7402
lhand -32.636 -38.1433
lfingers 7.12502
lthumb -5.86274 -8.24444
rfemur -53.5097 -27.0676 49.7978
rtibia 21.1014
rfoot -0.95079 44.9162
rtoes 10.3158
lfemur -48.9387 5.74281 -14.231
ltibia 25.1095
lfoot -6.5445 0.736278
ltoes -25.0587
148
root 4.00101 16.7057 13.1616 34.6754 -1.68264 -5.23396
lowerback 11.6832 0.967644 3.63452
upperback -4.30938 1.77803 -1.1355
thorax -11.1197 0.541296 -3.66137
lowerneck 6.53677 -11.9361 -25.3811
upperneck -29.8442 -12.7953 50.6458
head -2.02848 -9.43387 29.5065
rclavicle -1.43125e-014 -3.57812e-015
rhumerus 30.1858 21.7736 -95.9477
rradius 87.5288
rwrist -30.8366
rhand -20.0282 -20.5748
rfingers 7.12502
rthumb 6.31254 -50.4607
lclavicle -1.43125e-014 -3.57812e-015
lhumerus 26.1022 -24.8696 88.2319
lradius 85.3909
lwrist 45.0663
lhand -32.629 -38.4011
lfingers 7.12502
lthumb -5.85603 -8.50202
rfemur -53.411 -27.0051 49.6568
rtibia 21.1474
rfoot -0.907905 44.7283
rtoes 10.3209
lfemur -48.8738 5.74859 -14.2392
ltibia 25.1041
lfoot -6.50628 0.670188
ltoes -25.1587
